<?xml version="1.0" encoding="utf-8"?>
<!-- Generator: Adobe Illustrator 15.1.0, SVG Export Plug-In . SVG Version: 6.00 Build 0)  -->
<!DOCTYPE svg PUBLIC "-//W3C//DTD SVG 1.1 Tiny//EN" "http://www.w3.org/Graphics/SVG/1.1/DTD/svg11-tiny.dtd">
<svg version="1.1" baseProfile="tiny" id="Layer_1" xmlns="http://www.w3.org/2000/svg" xmlns:xlink="http://www.w3.org/1999/xlink"
	 x="0px" y="0px" width="452.52px" height="452.52px" viewBox="0 0 452.52 452.52" xml:space="preserve">
<g id="Layer_4">
	<path fill="#FFFFFF" stroke="#000000" stroke-width="0.72" stroke-miterlimit="10" d="M226.26,0.36
		c-124.761,0-225.9,101.139-225.9,225.899c0,124.762,101.139,225.9,225.9,225.9c124.761,0,225.899-101.139,225.899-225.9
		C452.16,101.499,351.021,0.36,226.26,0.36"/>
	
		<path fill="#F70302" stroke="#000000" stroke-width="0.72" stroke-linecap="round" stroke-linejoin="round" stroke-miterlimit="10" d="
		M226.26,11.64c-118.531,0-214.62,96.089-214.62,214.62c0,118.532,96.089,214.62,214.62,214.62s214.62-96.088,214.62-214.62
		C440.88,107.729,344.792,11.64,226.26,11.64"/>
	
		<path fill="#FFFFFF" stroke="#000000" stroke-width="0.72" stroke-linecap="round" stroke-linejoin="round" stroke-miterlimit="10" d="
		M226.26,50.879c-96.86,0-175.38,78.521-175.38,175.379c0,96.861,78.52,175.381,175.38,175.381
		c96.859,0,175.38-78.52,175.38-175.381C401.64,129.4,323.12,50.879,226.26,50.879"/>
	
		<path fill="#7FFFFE" stroke="#000000" stroke-width="0.72" stroke-linecap="round" stroke-linejoin="round" stroke-miterlimit="10" d="
		M226.26,64.44c-89.371,0-161.82,72.449-161.82,161.819c0,89.371,72.449,161.82,161.82,161.82s161.82-72.449,161.82-161.82
		C388.081,136.889,315.631,64.44,226.26,64.44"/>
	
		<polyline id="Right" fill="#FFFFFF" stroke="#000000" stroke-width="0.72" stroke-linecap="round" stroke-linejoin="round" stroke-miterlimit="10" points="
		267.001,218.946 267.002,233.575 388.039,229.944 388.038,222.577 267.001,218.946 	"/>
	
		<polyline id="Bottom" fill="#FFFFFF" stroke="#000000" stroke-width="0.72" stroke-linecap="round" stroke-linejoin="round" stroke-miterlimit="10" points="
		233.575,266.999 218.946,267 222.576,388.036 229.943,388.035 233.575,266.999 	"/>
	
		<polyline id="Left" fill="#FFFFFF" stroke="#000000" stroke-width="0.72" stroke-linecap="round" stroke-linejoin="round" stroke-miterlimit="10" points="
		185.52,233.574 185.519,218.945 64.483,222.575 64.484,229.942 185.52,233.574 	"/>
	
		<polyline id="Top" fill="#FFFFFF" stroke="#000000" stroke-width="0.72" stroke-linecap="round" stroke-linejoin="round" stroke-miterlimit="10" points="
		218.946,185.519 233.575,185.518 229.945,64.481 222.578,64.482 218.946,185.519 	"/>
	
		<path fill="#FFFFFF" stroke="#000000" stroke-width="0.72" stroke-linecap="round" stroke-linejoin="round" stroke-miterlimit="10" d="
		M226.26,184.68c-22.964,0-41.58,18.616-41.58,41.58c0,22.965,18.616,41.58,41.58,41.58c22.965,0,41.58-18.615,41.58-41.58
		C267.84,203.296,249.225,184.68,226.26,184.68"/>
	
		<path fill="none" stroke="#000000" stroke-width="0.72" stroke-linecap="round" stroke-linejoin="round" stroke-miterlimit="10" d="
		M226.26,199.68c-14.68,0-26.58,11.9-26.58,26.58c0,14.681,11.9,26.58,26.58,26.58s26.58-11.899,26.58-26.58
		C252.84,211.58,240.94,199.68,226.26,199.68"/>
</g>
<g id="Lettering">
	
		<polyline fill="#FFFFFF" stroke="#000000" stroke-width="0.72" stroke-linecap="round" stroke-linejoin="round" stroke-miterlimit="10" points="
		44.279,170.998 45.959,167.758 46.919,168.358 47.759,168.838 48.599,169.558 49.319,170.158 49.919,170.878 50.519,171.598 
		50.999,172.318 51.479,173.158 51.839,173.998 52.079,174.838 52.199,175.678 52.319,176.638 52.439,177.479 52.319,178.438 
		52.199,179.398 51.959,180.479 51.719,181.438 51.479,182.398 51.119,183.238 50.639,184.078 50.279,184.798 49.799,185.519 
		49.319,186.238 48.719,186.718 48.119,187.318 47.519,187.798 46.799,188.158 46.079,188.519 45.359,188.878 44.519,189.118 
		43.679,189.358 42.839,189.598 41.999,189.718 41.039,189.718 40.199,189.838 39.239,189.718 38.399,189.718 37.439,189.598 
		36.479,189.479 35.639,189.238 34.679,188.998 33.719,188.758 32.759,188.398 31.919,188.038 31.079,187.558 30.359,187.078 
		29.639,186.598 28.919,186.118 28.319,185.519 27.719,184.918 27.239,184.318 26.759,183.598 26.399,182.878 26.039,182.158 
		25.679,181.438 25.439,180.598 25.199,179.878 25.079,179.038 24.959,178.198 24.959,177.358 24.959,176.519 25.079,175.798 
		25.199,174.958 25.319,174.118 25.679,173.158 25.919,172.198 26.279,171.358 26.759,170.638 27.239,169.918 27.719,169.198 
		28.319,168.598 28.919,168.118 29.519,167.519 30.239,167.158 30.959,166.678 31.799,166.438 32.639,166.078 33.479,165.958 
		34.319,165.838 35.279,165.718 35.279,169.198 34.559,169.318 33.839,169.438 33.239,169.558 32.639,169.798 32.039,170.038 
		31.559,170.278 31.079,170.519 30.599,170.878 30.119,171.238 29.759,171.598 29.519,172.078 29.159,172.558 28.919,173.038 
		28.679,173.638 28.439,174.238 28.319,174.838 28.079,175.558 28.079,176.278 27.959,176.998 27.959,177.598 28.079,178.318 
		28.199,178.918 28.319,179.519 28.559,180.118 28.799,180.718 29.039,181.198 29.399,181.678 29.759,182.158 30.239,182.638 
		30.599,182.998 31.199,183.479 31.679,183.838 32.759,184.438 33.959,184.918 35.159,185.398 36.479,185.758 38.039,186.118 
		39.599,186.238 41.039,186.238 41.759,186.238 42.359,186.118 43.079,186.118 43.679,185.878 44.279,185.758 44.879,185.519 
		45.359,185.158 45.839,184.918 46.319,184.438 46.799,184.078 47.159,183.598 47.519,183.238 47.879,182.758 48.239,182.158 
		48.479,181.678 48.719,181.198 48.839,180.598 49.079,179.998 49.199,179.278 49.199,178.678 49.319,177.958 49.199,177.238 
		49.199,176.638 48.959,176.038 48.839,175.438 48.479,174.838 48.239,174.238 47.879,173.638 47.399,173.158 46.919,172.678 
		46.319,172.198 45.719,171.718 44.999,171.358 44.279,170.998 	"/>
	
		<polyline fill="#FFFFFF" stroke="#000000" stroke-width="0.72" stroke-linecap="round" stroke-linejoin="round" stroke-miterlimit="10" points="
		55.799,164.998 31.199,155.158 32.519,151.918 42.599,155.998 47.759,143.278 37.679,139.198 38.999,135.958 63.479,145.798 
		62.279,149.038 50.639,144.479 45.479,157.078 56.999,161.758 55.799,164.998 	"/>
	
		<polyline fill="#FFFFFF" stroke="#000000" stroke-width="0.72" stroke-linecap="round" stroke-linejoin="round" stroke-miterlimit="10" points="
		66.839,139.918 43.439,127.558 45.119,124.438 68.519,136.798 66.839,139.918 	"/>
	
		<polyline fill="#FFFFFF" stroke="#000000" stroke-width="0.72" stroke-linecap="round" stroke-linejoin="round" stroke-miterlimit="10" points="
		71.519,131.038 49.439,116.278 51.479,113.278 76.559,113.398 59.279,101.878 61.199,99.118 83.159,113.878 81.119,116.758 
		56.039,116.638 73.319,128.278 71.519,131.038 	"/>
	
		<polyline fill="#FFFFFF" stroke="#000000" stroke-width="0.72" stroke-linecap="round" stroke-linejoin="round" stroke-miterlimit="10" points="
		87.959,92.638 85.679,90.598 93.359,82.438 100.559,89.038 100.319,90.598 100.079,92.158 99.719,93.598 99.119,95.038 
		98.519,96.358 97.799,97.558 96.959,98.758 96.119,99.838 95.399,100.558 94.679,101.158 93.959,101.758 93.239,102.238 
		92.519,102.718 91.679,103.198 90.839,103.558 89.999,103.798 89.159,104.158 88.319,104.278 87.479,104.398 86.639,104.519 
		85.799,104.519 84.959,104.398 83.999,104.278 83.159,104.038 82.319,103.798 81.479,103.438 80.759,103.078 79.919,102.718 
		79.199,102.238 78.359,101.638 77.639,101.158 76.919,100.438 76.199,99.838 75.599,99.118 74.999,98.398 74.399,97.678 
		73.919,96.838 73.559,96.118 73.079,95.278 72.719,94.438 72.479,93.598 72.239,92.638 71.999,91.798 71.999,90.958 71.879,90.118 
		71.999,89.278 72.119,88.438 72.239,87.598 72.479,86.878 72.839,86.038 73.199,85.198 73.559,84.479 74.039,83.638 74.639,82.918 
		75.239,82.198 75.839,81.479 76.799,80.519 77.879,79.678 78.959,78.958 80.039,78.358 81.239,77.878 82.319,77.519 82.799,77.519 
		83.399,77.398 83.879,77.398 84.479,77.398 85.559,77.519 86.639,77.878 87.839,78.358 89.039,78.838 87.479,81.838 86.519,81.358 
		85.679,80.998 84.839,80.878 84.119,80.758 83.399,80.638 82.679,80.758 81.839,80.998 80.999,81.238 80.279,81.718 79.439,82.198 
		78.719,82.798 77.999,83.519 77.279,84.358 76.679,85.198 76.199,86.158 75.719,86.998 75.479,87.838 75.239,88.678 75.239,89.519 
		75.239,90.358 75.359,91.198 75.479,91.918 75.719,92.638 75.959,93.358 76.679,94.558 77.399,95.638 78.239,96.718 79.199,97.678 
		79.919,98.278 80.519,98.758 81.119,99.238 81.839,99.718 82.439,100.078 83.159,100.318 83.759,100.678 84.359,100.798 
		85.079,101.038 85.679,101.038 86.279,101.158 86.879,101.158 87.599,101.158 88.199,101.038 88.799,100.798 89.399,100.678 
		90.599,100.078 91.199,99.838 91.679,99.479 92.159,99.118 92.639,98.758 93.599,97.798 94.319,96.958 95.039,95.998 
		95.519,95.038 95.999,93.958 96.359,92.998 96.599,92.038 96.839,91.078 96.839,90.358 93.239,86.998 87.959,92.638 	"/>
	
		<polyline fill="#FFFFFF" stroke="#000000" stroke-width="0.72" stroke-linecap="round" stroke-linejoin="round" stroke-miterlimit="10" points="
		107.759,87.718 91.319,67.078 105.239,56.038 107.279,58.438 95.999,67.318 101.039,73.798 110.879,66.118 112.799,68.519 
		103.079,76.198 110.519,85.558 107.759,87.718 	"/>
	
		<path fill="#FFFFFF" stroke="#000000" stroke-width="0.72" stroke-linecap="round" stroke-linejoin="round" stroke-miterlimit="10" d="
		M142.319,56.278l-0.12-0.84l-0.24-0.96l-0.24-0.841l-0.24-0.84l-0.36-0.84l-0.48-0.96l-0.48-0.84l-0.48-0.84l-0.6-0.721l-0.48-0.84
		l-0.6-0.6l-0.72-0.72l-0.6-0.601l-0.72-0.479l-0.72-0.48l-0.72-0.479l-0.72-0.36l-0.84-0.36l-0.72-0.239l-0.84-0.24l-0.84-0.12
		l-0.84-0.12l-0.84-0.12l-0.84,0.12h-0.84l-0.84,0.12l-0.84,0.24l-0.84,0.239l-0.72,0.36l-0.84,0.36l-0.84,0.359l-1.08,0.841
		l-1.08,0.72l-0.96,0.96l-0.72,0.84l-0.72,1.08l-0.6,1.08l-0.48,1.08l-0.36,1.2l-0.24,1.319v1.2v1.32l0.24,1.319l0.24,1.32
		l0.48,1.44l0.72,1.319l0.72,1.44l0.48,0.72l0.48,0.72l0.48,0.721l0.6,0.6l0.6,0.601l0.6,0.6l0.72,0.479l0.72,0.48l0.72,0.48
		l0.72,0.359l0.72,0.36l0.84,0.24l0.84,0.239l0.72,0.12l0.84,0.12l0.96,0.12h0.84l0.84-0.12l0.84-0.12l0.84-0.24l0.84-0.239
		l0.84-0.24l0.84-0.48l0.72-0.359l0.72-0.48l0.72-0.479l0.72-0.48l0.6-0.6l0.48-0.601l0.6-0.6l0.48-0.72l0.48-0.721l0.36-0.72
		l0.36-0.72l0.24-0.84l0.24-0.721l0.24-0.84l0.12-0.84v-0.84v-0.96L142.319,56.278z M138.959,58.198v0.84l-0.12,0.96l-0.24,0.96
		l-0.36,0.84l-0.36,0.721l-0.48,0.72l-0.6,0.72l-0.72,0.6l-0.72,0.601l-0.72,0.479l-0.84,0.48l-0.96,0.36l-0.84,0.239l-0.84,0.12
		l-0.84,0.12h-0.96l-0.84-0.24l-0.96-0.12l-0.84-0.359l-0.84-0.36l-0.84-0.6l-0.72-0.601l-0.72-0.6l-0.72-0.84l-0.72-0.84l-0.6-1.08
		l-0.72-1.2l-0.48-1.2l-0.48-1.2l-0.24-1.08l-0.24-1.08v-0.96v-0.96l0.24-0.96l0.24-0.84l0.36-0.84l0.48-0.72l0.48-0.721l0.6-0.6
		l0.6-0.6l0.72-0.601l0.72-0.479l0.6-0.36l0.6-0.24l0.48-0.239l0.6-0.12l0.6-0.12l0.6-0.12h0.72h0.6h0.6l0.6,0.12l0.6,0.12l0.6,0.12
		l0.6,0.239l0.48,0.36l0.6,0.24l0.48,0.359l0.6,0.48l0.48,0.36l0.48,0.479l0.48,0.6l0.48,0.48l0.48,0.6l0.84,1.32l0.6,1.08
		l0.48,1.08l0.36,1.08l0.24,0.96l0.24,0.96V58.198z"/>
	
		<path fill="#FFFFFF" stroke="#000000" stroke-width="0.72" stroke-linecap="round" stroke-linejoin="round" stroke-miterlimit="10" d="
		M166.559,45.958l-1.08-0.6l-0.96-0.601l-0.96-0.6l-1.08-0.36l-0.48-0.24l-0.48-0.119l-0.72-0.12h-0.72l0.84-0.48l0.72-0.479
		l0.6-0.48l0.6-0.6l0.6-0.48l0.36-0.6l0.36-0.601l0.36-0.6l0.24-0.6l0.12-0.601l0.12-0.6v-0.72v-0.601l-0.12-0.6l-0.12-0.721
		l-0.24-0.6l-0.48-0.96l-0.6-0.96l-0.6-0.72l-0.84-0.721l-0.36-0.239l-0.48-0.24l-0.48-0.24l-0.36-0.24l-0.48-0.119l-0.48-0.12
		h-0.48l-0.48-0.12l-1.08,0.12l-1.2,0.239l-1.44,0.36l-1.56,0.6l-11.04,4.08l9.48,24.721l3.24-1.32l-4.2-10.92l3.84-1.44l1.08-0.359
		l0.84-0.24h0.36h0.48l0.84,0.12l0.48,0.12l0.6,0.239l0.6,0.24l0.6,0.48l1.68,0.96l2.04,1.439l5.28,3.96l4.08-1.56L166.559,45.958z
		 M159.359,40.318l-0.84,0.479l-0.84,0.48l-1.08,0.359l-7.08,2.761l-3.12-8.16l7.92-3l0.6-0.24l0.72-0.12l0.6-0.24h0.48h0.6h0.48
		l0.48,0.12l0.48,0.12l0.36,0.12l0.36,0.24l0.36,0.24l0.36,0.239l0.24,0.36l0.24,0.36l0.24,0.359l0.24,0.48l0.12,0.6l0.12,0.601v0.6
		l-0.12,0.6l-0.12,0.601l-0.36,0.6l-0.36,0.48l-0.48,0.479L159.359,40.318z"/>
	
		<path fill="#FFFFFF" stroke="#000000" stroke-width="0.72" stroke-linecap="round" stroke-linejoin="round" stroke-miterlimit="10" d="
		M196.079,35.158l-0.12-1.44l-0.36-1.439l-0.36-1.681l-0.6-1.439l-0.24-0.72l-0.36-0.721l-0.36-0.72l-0.48-0.6l-0.36-0.601
		l-0.48-0.479l-0.48-0.601l-0.48-0.479l-0.48-0.48l-0.48-0.359l-0.6-0.36l-0.6-0.36l-0.96-0.359l-1.08-0.36l-1.08-0.24h-1.08h-0.96
		l-1.08,0.12l-1.2,0.24l-1.44,0.24l-9,1.92l5.76,25.8l9.36-2.04l1.08-0.36l1.08-0.239l0.96-0.36l0.96-0.48l0.84-0.359l0.72-0.48
		l0.6-0.479l0.6-0.601l0.48-0.6l0.48-0.72l0.48-0.721l0.36-0.84l0.36-0.84l0.24-1.08l0.24-1.08l0.12-1.08l0.12-1.319L196.079,35.158
		z M192.479,38.158l-0.12,1.08l-0.24,0.96l-0.36,0.84l-0.36,0.72l-0.48,0.601l-0.48,0.479l-0.48,0.36l-0.6,0.479l-0.84,0.36
		l-0.84,0.36l-1.08,0.359l-1.2,0.24l-5.52,1.2l-4.32-19.68l5.4-1.2l1.44-0.24l1.2-0.12l1.08-0.12l0.84,0.12l0.48,0.12l0.48,0.12
		l0.48,0.24l0.6,0.239l0.48,0.24l0.36,0.36l0.48,0.359l0.48,0.48l0.48,0.479l0.36,0.601l0.36,0.6l0.36,0.721l0.36,0.84l0.36,0.84
		l0.24,0.84l0.24,0.96l0.24,1.44l0.12,1.319l0.12,1.2L192.479,38.158z"/>
	
		<path fill="#FFFFFF" stroke="#000000" stroke-width="0.72" stroke-linecap="round" stroke-linejoin="round" stroke-miterlimit="10" d="
		M224.879,17.038l-3.721,0.12l-9.72,26.52l3.72-0.12l2.761-8.039l11.04-0.12l3.239,7.92l3.96-0.12L224.879,17.038z M218.879,32.758
		l2.76-7.8l0.48-1.32l0.359-1.199l0.24-1.32l0.24-1.2l0.84,2.4l1.2,3l2.88,7.2L218.879,32.758z"/>
	
		<polyline fill="#FFFFFF" stroke="#000000" stroke-width="0.72" stroke-linecap="round" stroke-linejoin="round" stroke-miterlimit="10" points="
		239.519,43.558 242.879,17.398 246.479,17.878 257.639,40.198 260.279,19.678 263.639,20.158 260.279,46.198 256.679,45.838 
		245.519,23.519 242.879,44.038 239.519,43.558 	"/>
	
		<path fill="#FFFFFF" stroke="#000000" stroke-width="0.72" stroke-linecap="round" stroke-linejoin="round" stroke-miterlimit="10" d="
		M292.08,34.558v-0.72l-0.12-0.72l-0.24-0.72l-0.12-0.601l-0.24-0.72l-0.359-0.6l-0.24-0.601l-0.36-0.6l-0.72-0.84l-0.72-0.721
		l-0.84-0.72l-0.961-0.6l-0.84-0.36l-0.96-0.48l-1.2-0.359l-1.439-0.48l-8.76-2.52l-7.44,25.32l9.24,2.64l1.08,0.36l1.08,0.119
		l1.08,0.24h0.96h0.96h0.84l0.84-0.12l0.84-0.239l0.72-0.24l0.721-0.36l0.72-0.479l0.72-0.48l0.84-0.72l0.601-0.72l0.72-0.841
		l0.72-0.96l0.601-1.08l0.6-1.199l0.48-1.2l0.479-1.44l0.36-1.68l0.36-1.561v-0.84l0.119-0.72v-0.72L292.08,34.558z M288.599,35.398
		v0.72l-0.12,0.84l-0.12,0.96l-0.239,0.84l-0.24,0.96l-0.48,1.44l-0.479,1.2l-0.48,1.08l-0.6,0.96l-0.72,0.84l-0.601,0.72
		l-0.72,0.72l-0.84,0.48l-0.48,0.24l-0.72,0.12l-0.72,0.119l-0.721,0.12h-0.84l-0.96-0.12l-1.08-0.239l-1.2-0.36l-5.399-1.56
		l5.64-19.32l5.28,1.56l1.439,0.48l1.2,0.359l0.96,0.48l0.721,0.48l0.359,0.359l0.36,0.36l0.359,0.359l0.24,0.48l0.36,0.479
		l0.24,0.601l0.239,0.479l0.12,0.601l0.12,0.72l0.12,0.72V35.398z"/>
	
		<path fill="#FFFFFF" stroke="#000000" stroke-width="0.72" stroke-linecap="round" stroke-linejoin="round" stroke-miterlimit="10" d="
		M330,48.598l-0.12-0.6l-0.24-0.6l-0.24-0.721l-0.359-0.96l-0.601-0.84l-0.72-0.84l-0.84-0.84l-0.721-0.601l-0.84-0.6l-1.08-0.6
		l-1.319-0.721l-8.04-4.319l-12.48,23.279l8.4,4.44l0.96,0.479l1.08,0.48l0.96,0.36l0.96,0.239l0.84,0.24l0.96,0.12h0.84h0.721
		l0.84-0.12l0.84-0.24l0.84-0.239l0.84-0.36l0.84-0.48l0.84-0.6l0.841-0.6l0.84-0.84l0.84-0.961l0.84-0.96l0.72-1.199l0.721-1.2
		l0.84-1.561l0.6-1.56l0.24-0.72l0.12-0.721l0.12-0.72l0.12-0.72l0.12-0.72v-0.721v-0.72v-0.72L330,48.598z M326.639,50.158v0.72
		v0.601l-0.12,0.84l-0.24,0.72l-0.239,0.84l-0.36,0.72l-0.36,0.96l-0.479,0.841l-0.72,1.199l-0.721,1.2l-0.84,0.96l-0.72,0.84
		L321,61.198l-0.841,0.6l-0.84,0.48l-0.84,0.24l-0.6,0.239h-0.721h-0.6l-0.84-0.12L315,62.519l-0.96-0.36l-1.08-0.48l-1.08-0.479
		l-4.92-2.76l9.479-17.641l4.92,2.521l1.32,0.72l1.08,0.72l0.72,0.601l0.72,0.6l0.24,0.48l0.36,0.359l0.24,0.48l0.119,0.6l0.24,0.48
		l0.12,0.6l0.12,0.6V50.158z"/>
	
		<polyline fill="#FFFFFF" stroke="#000000" stroke-width="0.72" stroke-linecap="round" stroke-linejoin="round" stroke-miterlimit="10" points="
		326.399,73.318 341.279,51.479 344.159,53.398 329.279,75.238 326.399,73.318 	"/>
	
		<polyline fill="#FFFFFF" stroke="#000000" stroke-width="0.72" stroke-linecap="round" stroke-linejoin="round" stroke-miterlimit="10" points="
		339.239,71.519 342,73.438 341.519,74.278 341.159,75.118 340.919,75.838 340.799,76.678 340.679,77.398 340.799,78.238 
		341.04,79.078 341.519,79.918 342,80.758 342.599,81.598 343.319,82.318 344.159,83.038 344.879,83.638 345.599,84.118 
		346.439,84.598 347.159,84.838 348,85.078 348.719,85.198 349.319,85.198 350.04,85.078 350.639,84.838 351.12,84.598 
		351.599,84.238 352.08,83.878 352.439,83.278 352.679,82.798 352.799,82.318 352.919,81.718 352.799,81.118 352.679,80.398 
		352.439,79.678 352.08,78.958 351.599,78.358 351.12,77.519 349.199,74.998 348.239,73.558 347.399,72.358 346.799,71.398 
		346.319,70.438 345.959,69.479 345.839,68.638 345.719,67.678 345.719,66.838 345.959,65.998 346.199,65.158 346.679,64.438 
		347.159,63.718 347.879,62.998 348.599,62.398 349.439,61.918 350.399,61.558 350.879,61.438 351.479,61.318 351.959,61.318 
		352.439,61.318 353.04,61.318 353.519,61.318 354.12,61.438 354.719,61.678 355.799,62.038 356.879,62.638 357.959,63.238 
		359.04,64.078 360,65.038 360.959,65.998 361.799,66.958 362.399,68.038 362.639,68.638 362.879,69.118 363,69.718 363.12,70.198 
		363.239,70.798 363.239,71.278 363.359,71.878 363.239,72.358 363.239,72.958 363.12,73.438 362.879,73.918 362.759,74.519 
		362.519,74.998 362.279,75.479 361.559,76.438 358.799,74.519 359.159,73.918 359.399,73.438 359.639,72.958 359.759,72.358 
		359.879,71.878 360,71.398 359.879,70.918 359.879,70.438 359.759,69.958 359.519,69.358 359.279,68.878 359.04,68.398 
		358.559,67.918 358.199,67.438 357.719,66.958 357.12,66.479 356.519,65.998 355.919,65.638 355.319,65.278 354.839,64.918 
		354.239,64.678 353.759,64.558 353.279,64.438 352.799,64.438 352.319,64.438 351.959,64.438 351.479,64.558 351.12,64.678 
		350.759,64.918 350.519,65.158 350.159,65.398 349.919,65.638 349.559,66.238 349.319,66.838 349.199,67.438 349.199,68.158 
		349.319,68.519 349.439,68.878 349.679,69.358 350.04,69.958 350.879,71.278 352.08,72.958 353.279,74.519 354.239,75.838 
		354.959,77.038 355.439,77.878 355.919,79.078 356.279,80.158 356.399,80.638 356.399,81.118 356.399,81.718 356.399,82.198 
		356.279,82.678 356.159,83.158 356.04,83.638 355.919,83.998 355.679,84.479 355.439,84.958 354.839,85.798 354.479,86.158 
		354.12,86.519 353.759,86.878 353.279,87.118 352.799,87.358 352.319,87.598 351.359,88.078 350.759,88.198 350.279,88.318 
		349.679,88.318 349.199,88.318 348.599,88.318 348,88.318 347.399,88.198 346.799,88.078 345.599,87.598 344.399,87.118 
		343.319,86.398 342.239,85.558 340.919,84.479 340.319,83.878 339.839,83.278 339.359,82.678 339,82.078 338.519,81.598 
		338.279,80.998 337.919,80.398 337.799,79.798 337.559,79.198 337.439,78.598 337.319,77.998 337.319,77.398 337.319,76.798 
		337.319,76.078 337.439,75.479 337.559,74.878 337.679,74.278 337.919,73.798 338.159,73.198 338.519,72.598 338.879,72.118 
		339.239,71.519 	"/>
	
		<polyline fill="#FFFFFF" stroke="#000000" stroke-width="0.72" stroke-linecap="round" stroke-linejoin="round" stroke-miterlimit="10" points="
		358.319,100.198 375.599,84.479 369.719,77.998 372,75.958 386.159,91.318 383.879,93.358 378,86.998 360.719,102.718 
		358.319,100.198 	"/>
	
		<path fill="#FFFFFF" stroke="#000000" stroke-width="0.72" stroke-linecap="round" stroke-linejoin="round" stroke-miterlimit="10" d="
		M400.319,112.078l-0.12-0.48l-0.239-0.6l-0.48-1.08l-0.72-1.32l-0.96-1.319l-6.601-9.721l-21.84,14.761l1.92,2.88l9.721-6.48
		l2.279,3.24l0.721,1.08l0.359,0.6l0.12,0.48l0.12,0.36v0.96v0.479l-0.12,0.601l-0.12,0.6l-0.239,0.72l-0.601,1.8l-0.96,2.28
		l-2.64,6l2.52,3.601l3.36-7.801l0.479-1.08l0.36-1.08l0.24-1.079l0.24-1.08v-0.48v-0.6v-0.721l-0.12-0.72l0.72,0.72l0.6,0.601
		l0.601,0.479l0.72,0.48l0.6,0.36l0.721,0.239l0.6,0.24l0.6,0.12l0.721,0.12h0.6h0.72l0.601-0.12l0.6-0.24l0.601-0.24l0.6-0.239
		l0.6-0.36l0.841-0.72l0.72-0.721l0.6-0.84l0.48-0.84l0.24-0.479l0.119-0.48l0.12-0.479l0.12-0.48v-0.479v-0.48v-0.48
		L400.319,112.078z M396.959,112.798v0.36l-0.12,0.479l-0.12,0.36l-0.12,0.48l-0.24,0.359l-0.239,0.36l-0.24,0.24l-0.36,0.359
		l-0.36,0.24l-0.6,0.36l-0.479,0.239l-0.721,0.12h-0.6h-0.601l-0.6-0.12l-0.6-0.239l-0.601-0.36l-0.6-0.48l-0.72-0.72l-0.601-0.72
		l-0.6-0.96l-4.32-6.24l7.32-4.8l4.68,6.84l0.36,0.6l0.359,0.601l0.24,0.6l0.24,0.48l0.12,0.479l0.12,0.601V112.798z"/>
	
		<polyline fill="#FFFFFF" stroke="#000000" stroke-width="0.72" stroke-linecap="round" stroke-linejoin="round" stroke-miterlimit="10" points="
		384.239,135.479 407.519,122.878 409.199,125.878 385.919,138.479 384.239,135.479 	"/>
	
		<polyline fill="#FFFFFF" stroke="#000000" stroke-width="0.72" stroke-linecap="round" stroke-linejoin="round" stroke-miterlimit="10" points="
		405,158.038 405.599,161.638 404.519,161.758 403.439,161.758 402.359,161.758 401.399,161.638 400.559,161.398 399.599,161.158 
		398.759,160.918 397.919,160.438 397.199,159.958 396.479,159.479 395.759,158.878 395.159,158.158 394.559,157.438 
		394.08,156.718 393.599,155.758 393.12,154.918 392.759,153.958 392.519,152.998 392.279,152.038 392.04,151.198 392.04,150.238 
		391.919,149.398 392.04,148.678 392.159,147.838 392.279,146.998 392.519,146.278 392.759,145.558 393.12,144.838 393.599,144.118 
		394.08,143.519 394.559,142.798 395.159,142.198 395.879,141.479 396.479,140.998 397.199,140.398 397.919,139.918 
		398.759,139.438 399.599,138.958 400.319,138.598 401.279,138.118 402.239,137.758 403.08,137.519 404.04,137.278 405,137.038 
		405.839,136.918 406.799,136.798 407.639,136.798 408.479,136.918 409.319,136.918 410.159,137.158 411,137.278 411.719,137.638 
		412.439,137.878 413.159,138.238 413.879,138.718 414.599,139.198 415.199,139.798 415.799,140.278 416.279,140.878 
		416.879,141.598 417.359,142.198 417.719,142.918 418.199,143.758 418.559,144.479 418.799,145.438 419.159,146.278 
		419.279,147.238 419.399,148.078 419.519,148.918 419.519,149.758 419.399,150.598 419.159,151.438 418.919,152.278 
		418.679,152.998 418.319,153.718 417.839,154.438 417.359,155.158 416.759,155.758 416.04,156.479 415.319,157.078 
		413.279,154.198 413.879,153.718 414.359,153.238 414.839,152.758 415.199,152.158 415.559,151.678 415.799,151.198 
		416.04,150.718 416.159,150.118 416.279,149.638 416.399,149.038 416.399,148.558 416.279,147.958 416.279,147.358 
		416.159,146.758 415.919,146.158 415.679,145.558 415.439,144.958 415.08,144.238 414.719,143.638 414.239,143.158 
		413.879,142.678 413.399,142.198 412.919,141.838 412.439,141.479 411.839,141.118 411.239,140.878 410.759,140.638 
		410.159,140.519 409.559,140.398 408.959,140.278 408.359,140.278 407.639,140.278 406.319,140.398 405.12,140.638 
		403.919,140.998 402.599,141.479 401.159,142.198 399.839,142.918 398.639,143.758 398.04,144.118 397.559,144.598 397.08,145.078 
		396.719,145.558 396.359,146.038 396,146.638 395.759,147.118 395.519,147.718 395.399,148.318 395.279,148.918 395.159,149.519 
		395.159,149.998 395.159,150.598 395.159,151.198 395.279,151.798 395.399,152.398 395.639,152.878 395.879,153.479 
		396.12,154.078 396.479,154.798 396.839,155.278 397.199,155.758 397.679,156.238 398.159,156.718 398.759,157.078 
		399.359,157.438 399.959,157.678 400.559,157.918 401.159,158.038 401.879,158.158 402.599,158.278 403.439,158.278 
		404.159,158.158 405,158.038 	"/>
	
		<polyline fill="#FFFFFF" stroke="#000000" stroke-width="0.72" stroke-linecap="round" stroke-linejoin="round" stroke-miterlimit="10" points="
		400.799,175.918 423.479,170.038 421.199,161.638 424.319,160.918 429.479,181.078 426.479,181.918 424.319,173.519 
		401.639,179.278 400.799,175.918 	"/>
	
		<polyline fill="#FFFFFF" stroke="#000000" stroke-width="0.72" stroke-linecap="round" stroke-linejoin="round" stroke-miterlimit="10" points="
		21.239,262.679 46.319,256.318 47.639,261.479 31.199,271.918 27.839,274.078 32.159,274.438 51.119,276.238 52.199,280.798 
		27.119,287.038 26.279,283.798 47.399,278.519 24.479,276.358 23.759,273.358 43.439,260.519 21.959,265.918 21.239,262.679 	"/>
	
		<path fill="#FFFFFF" stroke="#000000" stroke-width="0.72" stroke-linecap="round" stroke-linejoin="round" stroke-miterlimit="10" d="
		M60.239,300.599l-0.12-0.84l-0.24-0.841l-0.24-0.84l-0.36-0.84l-0.6-1.2l-0.6-1.08l-0.84-1.08l-0.72-0.84l-0.96-0.84l-0.96-0.72
		l-1.08-0.601l-1.08-0.479l-1.2-0.36l-1.32-0.24l-1.2-0.119h-1.32l-1.44,0.239l-1.32,0.24l-1.44,0.48l-1.44,0.6l-0.84,0.36
		l-0.72,0.359l-0.72,0.48l-0.6,0.479l-0.72,0.48l-0.6,0.6l-0.6,0.601l-0.6,0.6l-0.48,0.72l-0.48,0.601l-0.479,0.72l-0.36,0.72
		l-0.24,0.84l-0.24,0.721l-0.24,0.84l-0.12,0.84l-0.12,0.84v0.84v0.841l0.12,0.96l0.12,0.84l0.24,0.84l0.24,0.84l0.36,0.84
		l0.36,0.721l0.36,0.84l0.48,0.6l0.48,0.72l0.48,0.601l0.48,0.6l0.6,0.601l0.72,0.6l0.6,0.479l0.72,0.36l0.72,0.36l0.72,0.359
		l0.84,0.24l0.72,0.24l0.84,0.12l0.96,0.12h0.84h0.84l0.84-0.12l0.96-0.12l0.84-0.24l0.96-0.24l0.84-0.239l0.96-0.36l0.84-0.48
		l0.84-0.359l0.72-0.48l0.84-0.6l0.6-0.48l0.72-0.6l0.6-0.6l0.6-0.601l0.48-0.72l0.48-0.72l0.48-0.721l0.36-0.72l0.24-0.72
		l0.24-0.84l0.24-0.841l0.12-0.84l0.12-0.84v-0.84v-0.84L60.239,300.599z M57.239,301.438v0.6v0.721v0.6l-0.12,0.6l-0.24,0.601
		l-0.12,0.479l-0.24,0.601l-0.36,0.6l-0.36,0.48l-0.36,0.479l-0.36,0.48l-0.48,0.479l-0.48,0.48l-0.48,0.479l-0.6,0.36l-0.6,0.359
		l-0.6,0.36l-1.44,0.72l-1.08,0.48l-1.08,0.36l-1.08,0.239l-1.08,0.12h-0.96h-0.96l-0.96-0.12l-0.84-0.359l-0.84-0.24l-0.84-0.48
		l-0.72-0.479l-0.6-0.601l-0.6-0.6l-0.48-0.72l-0.48-0.84l-0.48-0.841l-0.36-0.84l-0.24-0.96l-0.12-0.84v-0.84v-0.96l0.12-0.84
		l0.24-0.84l0.36-0.841l0.36-0.84l0.6-0.84l0.6-0.72l0.6-0.72l0.84-0.601l0.84-0.6l0.96-0.48l0.96-0.479l1.32-0.601l1.2-0.359
		l1.2-0.36l1.2-0.12l0.96-0.12l1.08,0.12l0.84,0.12l0.96,0.36l0.72,0.359l0.72,0.48l0.72,0.479l0.6,0.601l0.6,0.6l0.48,0.72
		l0.48,0.841l0.36,0.72l0.24,0.6l0.24,0.601l0.12,0.6l0.12,0.6V301.438z"/>
	
		<path fill="#FFFFFF" stroke="#000000" stroke-width="0.72" stroke-linecap="round" stroke-linejoin="round" stroke-miterlimit="10" d="
		M73.439,326.519l-0.24-1.08l-0.36-0.84l-0.48-0.96l-0.6-1.08l-0.72-1.32l-4.8-7.68l-21.84,14.04l4.92,8.04l0.6,1.08l0.72,0.84
		l0.6,0.72l0.72,0.72l0.6,0.601l0.72,0.6l0.72,0.48l0.72,0.359l0.72,0.24l0.72,0.24l0.84,0.12l0.96,0.12h0.84l1.08-0.12l1.08-0.12
		l1.08-0.24l1.2-0.48l1.2-0.479l1.2-0.6l1.2-0.721l1.32-0.96l1.32-1.08l1.08-1.08l0.48-0.479l0.48-0.601l0.36-0.6l0.36-0.6
		l0.36-0.601l0.24-0.6l0.24-0.72l0.24-0.601l0.12-0.72l0.12-0.6l0.12-1.08v-1.08L73.439,326.519z M70.439,328.559l-0.12,0.6
		l-0.12,0.48l-0.12,0.6l-0.24,0.6l-0.24,0.601l-0.36,0.479l-0.36,0.601l-0.48,0.6l-0.6,0.601l-0.6,0.479l-0.6,0.6l-0.84,0.601
		l-0.72,0.479l-1.32,0.721l-1.08,0.6l-1.2,0.48l-1.08,0.359l-0.96,0.24h-0.96h-0.96l-0.84-0.12l-0.6-0.12l-0.6-0.359l-0.6-0.36
		l-0.6-0.36l-0.6-0.6l-0.6-0.72l-0.72-0.96l-0.6-0.96l-3-4.801l16.8-10.68l2.88,4.68l0.72,1.2l0.6,1.08l0.36,0.96l0.24,0.84v0.48
		l0.12,0.6V328.559z"/>
	
		<polyline fill="#FFFFFF" stroke="#000000" stroke-width="0.72" stroke-linecap="round" stroke-linejoin="round" stroke-miterlimit="10" points="
		61.199,353.519 80.999,336.479 93.119,350.998 90.719,353.038 80.879,341.158 74.759,346.438 84.119,357.479 81.719,359.519 
		72.479,348.358 65.759,354.238 76.079,366.479 73.679,368.519 61.199,353.519 	"/>
	
		<polyline fill="#FFFFFF" stroke="#000000" stroke-width="0.72" stroke-linecap="round" stroke-linejoin="round" stroke-miterlimit="10" points="
		79.679,374.639 97.199,355.198 99.719,357.599 84.239,374.759 93.719,383.519 91.679,385.798 79.679,374.639 	"/>
	
		<polyline fill="#FFFFFF" stroke="#000000" stroke-width="0.72" stroke-linecap="round" stroke-linejoin="round" stroke-miterlimit="10" points="
		107.279,398.038 120.959,375.719 136.919,385.798 135.239,388.438 122.279,380.158 118.079,386.998 130.199,394.798 
		128.639,397.318 116.519,389.639 111.839,397.198 125.279,405.838 123.599,408.479 107.279,398.038 	"/>
	
		<polyline fill="#FFFFFF" stroke="#000000" stroke-width="0.72" stroke-linecap="round" stroke-linejoin="round" stroke-miterlimit="10" points="
		131.519,412.798 142.079,388.679 145.319,390.238 149.399,414.719 157.679,395.878 160.679,397.198 150.119,421.198 
		146.879,419.759 142.799,395.278 134.519,414.118 131.519,412.798 	"/>
	
		<polyline fill="#FFFFFF" stroke="#000000" stroke-width="0.72" stroke-linecap="round" stroke-linejoin="round" stroke-miterlimit="10" points="
		174.359,418.198 175.079,415.198 185.759,418.078 183.239,427.559 181.679,428.158 180.239,428.639 178.799,428.878 
		177.359,429.118 175.919,429.238 174.479,429.118 173.159,428.998 171.719,428.639 170.879,428.398 170.039,428.038 
		169.199,427.679 168.359,427.318 167.639,426.838 166.919,426.358 166.199,425.759 165.479,425.158 164.879,424.559 
		164.399,423.958 163.799,423.238 163.439,422.519 163.079,421.679 162.719,420.958 162.479,420.118 162.239,419.278 
		162.119,418.438 161.999,417.479 161.879,416.639 161.999,415.798 161.999,414.838 162.119,413.878 162.239,413.038 
		162.479,412.078 162.839,411.118 163.079,410.278 163.439,409.438 163.919,408.599 164.279,407.759 164.759,407.038 
		165.359,406.318 165.959,405.599 166.559,404.878 167.159,404.278 167.879,403.798 168.479,403.318 169.199,402.838 
		170.039,402.599 170.759,402.238 171.599,401.998 172.439,401.878 173.279,401.759 174.119,401.759 174.959,401.759 
		175.799,401.759 176.759,401.878 177.719,402.118 178.559,402.358 179.879,402.719 181.079,403.198 182.279,403.918 
		183.239,404.519 184.199,405.358 184.919,406.198 185.279,406.559 185.519,407.038 185.759,407.519 185.999,407.998 
		186.359,409.078 186.599,410.158 186.719,411.358 186.839,412.679 183.599,412.679 183.479,411.719 183.359,410.759 
		183.239,409.918 182.999,409.198 182.639,408.599 182.279,407.998 181.679,407.398 181.079,406.798 180.359,406.318 
		179.639,405.838 178.799,405.479 177.839,405.238 176.759,404.878 175.679,404.759 174.719,404.759 173.759,404.759 
		172.799,404.998 171.959,405.238 171.239,405.479 170.519,405.958 169.919,406.318 169.319,406.798 168.839,407.398 
		168.359,407.998 167.519,409.078 166.919,410.278 166.439,411.479 165.959,412.798 165.719,413.639 165.599,414.479 
		165.479,415.318 165.479,416.038 165.359,416.759 165.479,417.479 165.479,418.198 165.599,418.798 165.719,419.519 
		165.959,420.118 166.199,420.719 166.439,421.198 166.799,421.798 167.159,422.278 167.639,422.759 167.999,423.118 
		169.079,423.958 169.559,424.318 170.039,424.679 170.639,424.918 171.239,425.158 172.439,425.519 173.519,425.759 
		174.599,425.998 175.679,425.998 176.879,425.878 177.839,425.759 178.799,425.519 179.639,425.278 180.359,424.918 
		181.679,420.238 174.359,418.198 	"/>
	
		<polyline fill="#FFFFFF" stroke="#000000" stroke-width="0.72" stroke-linecap="round" stroke-linejoin="round" stroke-miterlimit="10" points="
		191.159,432.479 195.239,406.438 198.599,407.038 194.519,432.958 191.159,432.479 	"/>
	
		<polyline fill="#FFFFFF" stroke="#000000" stroke-width="0.72" stroke-linecap="round" stroke-linejoin="round" stroke-miterlimit="10" points="
		203.519,434.398 204.959,408.118 208.439,408.358 220.919,429.719 222.12,409.078 225.359,409.318 223.919,435.599 
		220.319,435.358 207.959,413.998 206.759,434.639 203.519,434.398 	"/>
	
		<polyline fill="#FFFFFF" stroke="#000000" stroke-width="0.72" stroke-linecap="round" stroke-linejoin="round" stroke-miterlimit="10" points="
		234.12,435.358 231.839,409.198 250.559,407.519 250.799,410.519 235.559,411.958 236.279,419.998 250.559,418.679 
		250.799,421.798 236.519,423.118 237.359,431.998 253.08,430.559 253.439,433.679 234.12,435.358 	"/>
	
		<polyline fill="#FFFFFF" stroke="#000000" stroke-width="0.72" stroke-linecap="round" stroke-linejoin="round" stroke-miterlimit="10" points="
		262.319,432.238 256.559,406.559 274.799,402.358 275.399,405.358 260.519,408.838 262.319,416.639 276.239,413.398 
		276.959,416.398 262.919,419.639 264.959,428.398 280.439,424.798 281.159,427.798 262.319,432.238 	"/>
	
		<path fill="#FFFFFF" stroke="#000000" stroke-width="0.72" stroke-linecap="round" stroke-linejoin="round" stroke-miterlimit="10" d="
		M304.559,411.719l-1.08-0.721l-0.96-0.6l-0.96-0.48l-0.96-0.359l-0.479-0.24l-0.48-0.12h-0.72l-0.721-0.12l0.841-0.479l0.72-0.48
		l0.6-0.479l0.601-0.601l0.479-0.479l0.48-0.601l0.239-0.6l0.36-0.6l0.24-0.601l0.12-0.6l0.12-0.721v-0.6v-0.6l-0.12-0.601
		l-0.24-0.72l-0.12-0.6l-0.479-0.96l-0.601-0.961l-0.6-0.72l-0.84-0.72l-0.36-0.24l-0.48-0.24l-0.359-0.239l-0.48-0.24l-0.479-0.12
		l-0.36-0.12H297h-0.48h-1.08l-1.2,0.24l-1.439,0.479l-1.44,0.48l-10.68,4.32l9.36,24.479l3.119-1.2l-4.079-10.92l3.72-1.439
		l0.96-0.48l0.84-0.12l0.36-0.12h0.479l0.84,0.12l0.48,0.12l0.479,0.24l0.601,0.36l0.72,0.359l1.561,0.96l2.039,1.44l5.16,3.84
		l3.96-1.56L304.559,411.719z M297.479,406.198l-0.72,0.36l-0.96,0.479l-0.96,0.48l-6.84,2.64l-3.12-8.04l7.56-3l0.72-0.24
		l0.601-0.239l0.6-0.12l0.601-0.12h0.479h0.48l0.479,0.12l0.48,0.12l0.359,0.12l0.36,0.239l0.36,0.24l0.359,0.24l0.24,0.359
		l0.24,0.36l0.24,0.36l0.119,0.479l0.24,0.601v0.6l0.12,0.6l-0.12,0.601l-0.24,0.6l-0.239,0.601l-0.36,0.479l-0.479,0.601
		L297.479,406.198z"/>
	
		<polyline fill="#FFFFFF" stroke="#000000" stroke-width="0.72" stroke-linecap="round" stroke-linejoin="round" stroke-miterlimit="10" points="
		317.279,413.519 305.639,389.998 308.639,388.438 320.279,411.958 317.279,413.519 	"/>
	
		<polyline fill="#FFFFFF" stroke="#000000" stroke-width="0.72" stroke-linecap="round" stroke-linejoin="round" stroke-miterlimit="10" points="
		328.439,407.759 314.519,385.559 317.519,383.639 339.839,393.599 328.919,376.198 331.679,374.398 345.599,396.599 
		342.719,398.519 320.279,388.559 331.199,405.958 328.439,407.759 	"/>
	
		<polyline fill="#FFFFFF" stroke="#000000" stroke-width="0.72" stroke-linecap="round" stroke-linejoin="round" stroke-miterlimit="10" points="
		356.399,374.278 354.359,371.998 362.639,364.559 369,371.878 368.639,373.559 368.159,374.998 367.679,376.438 367.08,377.759 
		366.359,378.958 365.519,380.158 364.559,381.238 363.599,382.198 362.879,382.798 362.159,383.398 361.319,383.878 
		360.599,384.358 359.759,384.719 359.04,385.078 358.199,385.438 357.359,385.679 356.519,385.798 355.679,385.918 
		354.839,386.038 354,385.918 353.159,385.918 352.319,385.679 351.479,385.438 350.639,385.198 349.919,384.838 349.08,384.479 
		348.359,383.998 347.639,383.519 346.919,382.918 346.199,382.318 345.599,381.719 344.879,380.998 344.279,380.278 
		343.799,379.559 343.199,378.719 342.839,377.998 342.359,377.158 342,376.318 341.759,375.479 341.399,374.519 341.279,373.679 
		341.04,372.838 341.04,371.878 341.04,371.038 341.04,370.198 341.159,369.358 341.399,368.639 341.639,367.798 342,366.958 
		342.359,366.238 342.719,365.398 343.199,364.679 343.799,363.958 344.399,363.358 345,362.639 345.719,361.918 346.799,361.078 
		347.879,360.358 348.959,359.759 350.159,359.278 351.239,358.918 352.319,358.679 352.919,358.679 353.399,358.679 354,358.679 
		354.479,358.798 355.439,359.038 356.519,359.398 357.599,359.998 358.679,360.719 357,363.479 356.159,362.878 355.319,362.519 
		354.599,362.278 353.879,362.038 353.159,361.918 352.319,361.918 351.599,362.038 350.759,362.278 349.919,362.639 
		349.199,363.118 348.359,363.599 347.639,364.198 346.799,365.038 346.08,365.759 345.599,366.599 345.12,367.438 344.759,368.278 
		344.519,369.118 344.279,369.958 344.279,370.798 344.279,371.519 344.399,372.358 344.519,373.078 344.759,373.798 
		345.239,374.998 345.839,376.198 346.559,377.398 347.399,378.479 348,379.078 348.599,379.679 349.199,380.158 349.799,380.639 
		350.279,381.118 350.879,381.479 351.479,381.838 352.199,382.078 352.799,382.318 353.399,382.438 354,382.559 354.599,382.679 
		355.199,382.679 355.799,382.679 356.399,382.559 357,382.438 358.199,381.958 358.799,381.719 359.399,381.479 359.879,381.118 
		360.359,380.759 361.439,380.038 362.159,379.198 362.879,378.358 363.599,377.398 364.08,376.438 364.559,375.479 
		364.919,374.519 365.159,373.679 365.279,372.838 362.159,369.238 356.399,374.278 	"/>
	
		<polyline fill="#FFFFFF" stroke="#000000" stroke-width="0.72" stroke-linecap="round" stroke-linejoin="round" stroke-miterlimit="10" points="
		389.519,337.798 392.279,335.519 392.879,336.358 393.479,337.198 393.959,338.038 394.319,338.998 394.679,339.838 
		394.919,340.798 395.04,341.639 395.159,342.599 395.159,343.438 395.04,344.398 394.919,345.238 394.679,346.078 394.319,346.918 
		393.839,347.759 393.359,348.599 392.879,349.438 392.279,350.278 391.559,350.998 390.959,351.719 390.239,352.318 
		389.519,352.918 388.919,353.278 388.199,353.759 387.479,353.998 386.639,354.238 385.919,354.479 385.199,354.599 
		384.359,354.599 383.639,354.719 382.799,354.599 381.959,354.479 381.12,354.358 380.279,354.118 379.439,353.759 
		378.599,353.519 377.759,353.158 377.04,352.679 376.199,352.318 375.479,351.719 374.639,351.238 373.919,350.639 
		373.199,349.918 372.479,349.318 371.879,348.599 371.279,347.878 370.799,347.158 370.319,346.438 369.959,345.719 
		369.599,344.878 369.359,344.158 369.12,343.318 368.879,342.599 368.879,341.759 368.759,340.918 368.759,340.198 
		368.879,339.358 369,338.519 369.239,337.679 369.479,336.958 369.719,336.118 370.08,335.398 370.439,334.679 370.919,333.958 
		371.399,333.238 372,332.519 372.599,331.798 373.199,331.198 373.919,330.599 374.519,330.118 375.239,329.759 376.08,329.398 
		376.799,329.158 377.639,328.918 378.479,328.798 379.199,328.679 380.04,328.679 380.879,328.798 381.719,328.918 
		382.679,329.158 383.519,329.398 382.08,332.639 381.479,332.519 380.759,332.278 380.159,332.158 379.559,332.158 
		378.959,332.038 378.359,332.158 377.759,332.158 377.279,332.278 376.799,332.519 376.319,332.759 375.839,332.998 
		375.359,333.358 374.879,333.719 374.519,334.078 374.04,334.559 373.679,335.038 373.199,335.639 372.839,336.358 
		372.599,336.958 372.359,337.559 372.12,338.158 372,338.759 371.879,339.358 371.879,340.078 371.879,340.679 371.879,341.278 
		372,341.878 372.239,342.479 372.359,342.958 372.599,343.559 372.959,344.158 373.319,344.639 374.04,345.719 374.879,346.679 
		375.839,347.519 376.799,348.358 378.12,349.198 379.439,350.038 380.759,350.639 381.359,350.878 381.959,350.998 
		382.679,351.238 383.279,351.238 383.879,351.358 384.479,351.358 385.08,351.238 385.559,351.118 386.159,350.998 
		386.759,350.759 387.239,350.519 387.719,350.278 388.319,349.918 388.679,349.679 389.159,349.198 389.519,348.838 390,348.358 
		390.359,347.998 390.719,347.398 391.08,346.798 391.319,346.198 391.559,345.479 391.679,344.878 391.799,344.278 
		391.919,343.559 391.919,342.958 391.799,342.238 391.679,341.639 391.439,341.038 391.199,340.318 390.839,339.719 
		390.479,338.998 390,338.398 389.519,337.798 	"/>
	
		<polyline fill="#FFFFFF" stroke="#000000" stroke-width="0.72" stroke-linecap="round" stroke-linejoin="round" stroke-miterlimit="10" points="
		403.08,333.358 380.399,320.639 382.08,317.519 402.12,328.798 408.239,317.398 410.879,318.838 403.08,333.358 	"/>
	
		<polyline fill="#FFFFFF" stroke="#000000" stroke-width="0.72" stroke-linecap="round" stroke-linejoin="round" stroke-miterlimit="10" points="
		396.599,285.838 397.799,282.599 411.719,288.238 413.399,288.958 414.839,289.679 415.559,290.158 416.159,290.519 
		416.639,290.998 417.12,291.358 417.599,291.838 417.959,292.318 418.319,292.798 418.679,293.278 418.919,293.878 
		419.159,294.479 419.279,295.078 419.519,295.798 419.519,296.519 419.639,297.238 419.519,297.958 419.519,298.679 
		419.399,299.519 419.159,300.358 418.919,301.198 418.559,302.038 418.199,302.878 417.839,303.599 417.479,304.318 
		417.12,305.038 416.639,305.639 416.159,306.238 415.679,306.719 415.199,307.198 414.719,307.559 414.239,307.918 
		413.639,308.278 413.04,308.519 412.439,308.639 411.839,308.878 411.239,308.878 410.639,308.998 410.04,308.998 409.319,308.878 
		408.479,308.759 407.759,308.639 406.919,308.398 406.08,308.158 404.279,307.438 390.359,301.918 391.559,298.679 
		405.479,304.198 406.919,304.798 408.239,305.158 409.439,305.398 410.399,305.519 411.12,305.398 411.599,305.398 
		411.959,305.158 412.679,304.918 413.399,304.318 414.12,303.719 414.599,302.998 415.199,302.158 415.559,301.198 
		415.919,300.238 416.159,299.519 416.279,298.679 416.399,297.958 416.399,297.238 416.279,296.639 416.159,296.038 
		416.04,295.438 415.679,294.838 415.319,294.358 414.719,293.878 414.12,293.398 413.399,292.918 412.439,292.318 411.479,291.958 
		410.399,291.479 396.599,285.838 	"/>
	
		<path fill="#FFFFFF" stroke="#000000" stroke-width="0.72" stroke-linecap="round" stroke-linejoin="round" stroke-miterlimit="10" d="
		M427.559,267.719l-0.12-0.841l-0.12-0.72l-0.239-0.72l-0.36-0.601l-0.48-0.6l-0.479-0.6l-0.601-0.601l-0.72-0.479l-0.72-0.48
		l-0.84-0.359l-0.84-0.24l-0.601-0.12l-0.479-0.12h-0.48h-0.6l-0.48,0.12l-0.479,0.12l-0.48,0.12l-0.479,0.239l-0.48,0.24
		l-0.479,0.24l-0.36,0.36l-0.48,0.359l-0.359,0.36l-0.36,0.479l-0.359,0.48l-0.24,0.479l-0.36-0.96l-0.359-0.84l-0.48-0.84
		l-0.48-0.6l-0.6-0.601l-0.72-0.479l-0.72-0.36l-0.841-0.24l-0.84-0.12h-0.84l-0.96,0.12l-0.84,0.24l-0.96,0.36l-0.72,0.479
		l-0.721,0.601l-0.6,0.84l-0.601,0.84l-0.479,1.08l-0.48,1.2l-0.359,1.319l-2.28,9.601l25.2,6.12l2.28-9.84l0.239-1.08l0.24-1.2
		l0.12-0.96v-0.96L427.559,267.719z M412.799,267.479l-0.12,0.72l-0.12,0.84l-0.24,1.08L411,275.639l-7.561-1.801l1.2-5.159
		l0.24-1.2l0.359-1.08l0.36-0.84l0.24-0.601l0.359-0.479l0.36-0.48l0.48-0.239l0.479-0.24l0.601-0.24h0.6h0.6l0.601,0.12l0.6,0.24
		l0.601,0.239l0.479,0.36l0.36,0.36l0.359,0.479l0.24,0.48l0.12,0.6l0.12,0.72V267.479z M424.559,269.158v0.601l-0.12,0.96
		l-0.24,1.319l-1.56,6.48l-8.64-2.16l1.319-5.88l0.36-1.2l0.36-0.96l0.239-0.84l0.36-0.72l0.36-0.48l0.479-0.48l0.601-0.359
		l0.479-0.36l0.6-0.12l0.721-0.12h0.6l0.72,0.12l0.601,0.24l0.479,0.24l0.48,0.24l0.479,0.359l0.36,0.36l0.36,0.36l0.239,0.479
		l0.12,0.36l0.12,0.479l0.12,0.48V269.158z"/>
	
		<path fill="#FFFFFF" stroke="#000000" stroke-width="0.72" stroke-linecap="round" stroke-linejoin="round" stroke-miterlimit="10" d="
		M30.539,216.958c-4.142,0-7.5,3.358-7.5,7.5c0,4.143,3.358,7.5,7.5,7.5s7.5-3.357,7.5-7.5
		C38.039,220.316,34.681,216.958,30.539,216.958"/>
	
		<path fill="#FFFFFF" stroke="#000000" stroke-width="0.72" stroke-linecap="round" stroke-linejoin="round" stroke-miterlimit="10" d="
		M420.059,218.758c-4.142,0-7.5,3.358-7.5,7.5c0,4.143,3.358,7.501,7.5,7.501c4.143,0,7.5-3.358,7.5-7.501
		C427.559,222.116,424.202,218.758,420.059,218.758"/>
</g>
<g id="Plane">
	
		<path fill="#FFFFFF" stroke="#000000" stroke-width="0.72" stroke-linecap="round" stroke-linejoin="round" stroke-miterlimit="10" d="
		M293.896,290.472l-3.617-3.913l-18.84-33.87c0-4.142,3.389-7.53,7.53-7.53l26.424,33.811"/>
	
		<path fill="#FFFFFF" stroke="#000000" stroke-width="0.72" stroke-linecap="round" stroke-linejoin="round" stroke-miterlimit="10" d="
		M312.839,286.559l33.896,22.587c0.35,1.616-0.084,3.33-1.076,4.653c-0.991,1.322-2.5,2.155-4.148,2.272l-36.111-14.393l-3.84-3.841
		"/>
	
		<path fill="#FFFFFF" stroke="#000000" stroke-width="0.72" stroke-linecap="round" stroke-linejoin="round" stroke-miterlimit="10" d="
		M247.806,336.59l-8.092-13.308c-0.167-1.471,0.302-2.934,1.348-3.98c1.047-1.047,2.57-1.515,4.041-1.348l10.721,10.612"/>
	
		<path fill="#FFFFFF" stroke="#000000" stroke-width="0.72" stroke-linecap="round" stroke-linejoin="round" stroke-miterlimit="10" d="
		M255.343,344.169l13.256,7.906c1.428,0.063,2.735-0.479,3.746-1.49s1.613-2.379,1.552-3.807l-10.54-10.637"/>
	
		<polyline fill="#FFFFFF" stroke="#000000" stroke-width="0.72" stroke-linecap="round" stroke-linejoin="round" stroke-miterlimit="10" points="
		337.199,255.358 336.599,254.038 335.879,252.719 335.04,251.278 334.08,249.958 333.12,248.759 332.159,247.438 331.08,246.238 
		329.879,245.038 328.679,243.838 327.479,242.759 326.159,241.798 324.959,240.838 323.639,239.878 322.319,239.158 321,238.438 
		319.679,237.838 320.159,239.158 320.879,240.479 321.599,241.798 322.439,243.238 323.399,244.438 324.359,245.759 
		325.439,247.078 326.519,248.278 327.719,249.479 328.919,250.559 330.12,251.639 331.319,252.719 332.639,253.559 
		333.959,254.519 335.279,255.238 336.599,255.958 337.319,257.278 338.04,258.599 338.879,259.918 339.719,261.238 
		340.679,262.559 341.759,263.878 342.839,265.078 343.919,266.278 345.12,267.358 346.439,268.559 347.639,269.519 
		348.959,270.479 350.279,271.318 351.599,272.158 352.919,272.878 354.239,273.479 353.639,272.158 353.04,270.719 
		352.199,269.398 351.359,268.078 350.519,266.759 349.439,265.438 348.479,264.238 347.399,263.038 346.199,261.838 345,260.639 
		343.799,259.679 342.479,258.599 341.159,257.639 339.839,256.798 338.519,256.078 337.199,255.358 	"/>
	
		<path fill="#FFFFFF" stroke="#000000" stroke-width="0.72" stroke-linecap="round" stroke-linejoin="round" stroke-miterlimit="10" d="
		M333.546,254.614l3.721,3.729c0.921,6.565-1.074,13.195-5.389,18.229s-10.537,8.032-17.166,8.126l-61.993,62.101l-7.561-7.56
		l62.017-62.054C308.217,263.676,320.038,253.579,333.546,254.614z"/>
</g>
<g id="Lathe">
	<path fill="#FFFFFF" stroke="#000000" stroke-width="0.72" stroke-miterlimit="10" d="M203.479,328.037l-3.48-49.199l-1.68-3.512
		h-55.08l0,0c0-5.085-3.407-9.49-8.301-10.862l0.001-7.274l0,0c1.93-1.323,2.753-3.798,2.061-6.033s-2.761-3.759-5.101-3.759
		s-4.408,1.523-5.101,3.759s0.19,4.71,2.12,6.033l0,0l-0.002,7.273l0,0c-4.914,1.359-8.298,5.765-8.298,10.863l0,0h-18.81v0.031
		c-7.257,0-13.17,5.883-13.17,13.14c0,7.258,5.883,13.141,13.14,13.141h22.737l-3.838,26.399H203.479z"/>
	<path d="M167.419,256.518c-19.186,0-34.74,15.554-34.74,34.74c0,19.186,15.555,34.739,34.74,34.739
		c19.188,0,34.74-15.554,34.74-34.739C202.159,272.071,186.606,256.518,167.419,256.518z M171.902,263.423
		c0.354-0.43,0.853-0.655,1.397-0.543c7.957,1.649,14.857,6.563,19.017,13.546c1.386,2.327,1.007,5.278-0.949,7.153
		c-4.614,4.423-10.904,6.806-17.291,6.537c-0.596-0.025-1.411-0.497-1.626-1.054c-0.254-0.395-0.489-1.778-0.328-2.219
		c2.606-7.108,2.434-14.938-0.482-21.924C171.426,264.406,171.548,263.852,171.902,263.423z M171.56,291.258
		c0,2.286-1.854,4.14-4.141,4.14c-2.286,0-4.14-1.854-4.14-4.14c0-2.287,1.854-4.141,4.14-4.141
		C169.706,287.117,171.56,288.971,171.56,291.258z M142.247,276.896c4.027-7.058,10.834-12.102,18.76-13.9
		c2.642-0.599,5.331,0.674,6.51,3.113c2.781,5.756,3.104,12.474,0.874,18.465c-0.208,0.559-0.909,1.188-1.505,1.221
		c-0.453,0.12-1.842-0.084-2.211-0.374c-5.955-4.675-13.455-6.93-21-6.315c-0.555,0.045-1.045-0.243-1.343-0.712
		C142.032,277.924,141.972,277.38,142.247,276.896z M147.431,311.143c-0.538,0.14-1.074,0.029-1.449-0.382
		c-5.468-6.012-8.162-14.043-7.422-22.137c0.246-2.698,2.287-4.862,4.972-5.229c6.333-0.866,12.822,0.903,17.831,4.875
		c0.467,0.37,0.85,1.23,0.696,1.808c-0.026,0.469-0.649,1.727-1.039,1.987c-6.286,4.22-10.749,10.654-12.496,18.021
		C148.396,310.627,147.97,311.004,147.431,311.143z M179.344,317.672c-7.407,3.343-15.878,3.423-23.347,0.22
		c-2.49-1.068-3.918-3.679-3.438-6.346c1.133-6.29,4.822-11.915,10.146-15.452c0.496-0.329,1.434-0.427,1.935-0.103
		c0.438,0.17,1.441,1.15,1.569,1.603c2.07,7.282,6.811,13.515,13.277,17.453c0.475,0.289,0.701,0.81,0.668,1.365
		C180.12,316.968,179.851,317.442,179.344,317.672z M189.22,310.353c-1.785,2.038-4.709,2.589-7.098,1.308
		c-5.632-3.021-9.842-8.267-11.561-14.424c-0.159-0.575,0.037-1.495,0.5-1.872c0.297-0.363,1.541-1.015,2.01-0.997
		c7.565,0.281,14.958-2.302,20.701-7.234c0.422-0.362,0.988-0.417,1.505-0.213c0.519,0.204,0.886,0.607,0.948,1.161
		C197.116,296.158,194.574,304.239,189.22,310.353z"/>
</g>
<g id="Boat">
	
		<polyline fill="#FFFFFF" stroke="#000000" stroke-width="0.72" stroke-linecap="round" stroke-linejoin="round" stroke-miterlimit="10" points="
		321.599,119.038 321.599,190.678 367.799,191.158 321.599,119.038 	"/>
	
		<polyline fill="#FFFFFF" stroke="#000000" stroke-width="0.72" stroke-linecap="round" stroke-linejoin="round" stroke-miterlimit="10" points="
		312.839,196.318 312.839,109.678 316.679,109.678 316.679,196.318 	"/>
	
		<polyline fill="#FFFFFF" stroke="#000000" stroke-width="0.72" stroke-linecap="round" stroke-linejoin="round" stroke-miterlimit="10" points="
		271.439,196.318 365.519,196.318 354.239,211.318 275.279,211.318 271.439,196.318 	"/>
	
		<polygon fill="#FFFFFF" stroke="#000000" stroke-width="0.72" stroke-linecap="round" stroke-linejoin="round" stroke-miterlimit="10" points="
		306.839,124.078 267.599,191.158 306.839,191.158 	"/>
</g>
<g id="Loco">
	
		<polyline id="L_wheel" fill="#FFFFFF" stroke="#000000" stroke-width="0.72" stroke-linecap="round" stroke-linejoin="round" stroke-miterlimit="10" points="
		133.799,186.238 133.799,206.998 127.559,206.998 127.559,186.238 	"/>
	
		<polyline id="R_wheel" fill="#FFFFFF" stroke="#000000" stroke-width="0.72" stroke-linecap="round" stroke-linejoin="round" stroke-miterlimit="10" points="
		164.879,186.238 164.879,206.998 158.639,206.998 158.639,186.238 	"/>
	
		<path fill="#FFFFFF" stroke="#000000" stroke-width="0.72" stroke-linecap="round" stroke-linejoin="round" stroke-miterlimit="10" d="
		M156.526,159.118c-3.048,1.699-6.553,2.675-10.291,2.675c-3.717,0-7.206-0.964-10.242-2.645h-0.016
		c0.098,3.947-1.405,7.711-4.155,10.544l28.791,0.021c-2.663-2.889-4.064-6.667-4.068-10.595H156.526z"/>
	
		<polyline fill="#FFFFFF" stroke="#000000" stroke-width="0.72" stroke-linecap="round" stroke-linejoin="round" stroke-miterlimit="10" points="
		117.239,169.678 175.199,169.678 175.199,186.238 117.239,186.238 117.239,169.678 	"/>
	
		<rect id="Buffer_beam" x="117.239" y="177.958" stroke="#000000" stroke-width="0.72" stroke-linecap="round" stroke-linejoin="round" stroke-miterlimit="10" width="57.96" height="4.2"/>
	
		<path id="L_buffer" fill="#FFFFFF" stroke="#000000" stroke-width="0.72" stroke-linecap="round" stroke-linejoin="round" stroke-miterlimit="10" d="
		M125.459,171.718c-3.413,0-6.18,2.768-6.18,6.181s2.767,6.18,6.18,6.18s6.18-2.767,6.18-6.18S128.872,171.718,125.459,171.718"/>
	
		<path id="R_buffer" fill="#FFFFFF" stroke="#000000" stroke-width="0.72" stroke-linecap="round" stroke-linejoin="round" stroke-miterlimit="10" d="
		M166.859,171.718c-3.414,0-6.18,2.768-6.18,6.181s2.767,6.18,6.18,6.18c3.413,0,6.18-2.767,6.18-6.18
		S170.272,171.718,166.859,171.718"/>
	
		<path fill="#FFFFFF" stroke="#000000" stroke-width="0.72" stroke-linecap="round" stroke-linejoin="round" stroke-miterlimit="10" d="
		M146.099,119.398c-11.697,0-21.18,9.482-21.18,21.18s9.483,21.18,21.18,21.18s21.18-9.482,21.18-21.18
		S157.796,119.398,146.099,119.398"/>
	
		<path id="Door" fill="#FFFFFF" stroke="#000000" stroke-width="0.72" stroke-linecap="round" stroke-linejoin="round" stroke-miterlimit="10" d="
		M146.099,123.598c-9.378,0-16.98,7.603-16.98,16.98s7.602,16.979,16.98,16.979s16.98-7.602,16.98-16.979
		S155.477,123.598,146.099,123.598"/>
	
		<path id="Chimney" stroke="#000000" stroke-width="0.72" stroke-linecap="round" stroke-linejoin="round" stroke-miterlimit="10" d="
		M142.08,119.737c1.303-0.25,2.645-0.393,4.021-0.393c1.459,0,2.883,0.148,4.259,0.429v-6.19h2.04v-2.04h-12.36v2.04h2.04V119.737z"
		/>
</g>
</svg>
